<svg width="228" height="104" xmlns="http://www.w3.org/2000/svg" xmlns:xlink="http://www.w3.org/1999/xlink"><defs><path id="a" d="M0 .491h63.509v63.508H0z"/><path id="c" d="M0 0h147.824v24.107H0z"/></defs><g fill="none" fill-rule="evenodd"><g transform="translate(1 19.5)"><mask id="b" fill="#fff"><use xlink:href="#a"/></mask><path d="M0 .49h41.834c-.57 1.133-.562 2.653-.192 3.85.47 1.502.896 2.462 1.414 3.838l3.978.874-2.072-5.261c-.232-1.147.1-2.221.691-2.728.29-.29.632-.48 1.019-.573h1.234l.123.024c.827.24 1.47.802 1.877 1.682-.429.97-.578 1.915-.442 2.955l.752 4.584 3.59.765-.985-5.488c-.376-3.97 5.232-3.405 5.19-.314l-1.385 6.416 3.542.762 1.386-6.421c.376-.87 1.14-1.296 1.955-1.384v7.659l-.512.749.512.11v1.607a1.68 1.68 0 0 0-1.232 1.275 1.684 1.684 0 0 0 1.232 1.987v1.117l-19.37-4.173-.729 3.357 20.1 4.328v1.941l-25.83-5.565-5.592 25.944c-1.739 8.056 2.685 16.045 10.226 19.592H0V.489Zm45.133 9.586a1.68 1.68 0 1 1-1.992 1.286 1.672 1.672 0 0 1 1.992-1.286Zm6.387 1.358a1.686 1.686 0 0 1 1.293 2 1.681 1.681 0 0 1-2.003 1.285 1.687 1.687 0 0 1-1.29-1.997 1.686 1.686 0 0 1 2-1.288Zm6.485 1.394a1.677 1.677 0 0 1 1.285 2.003 1.673 1.673 0 0 1-1.997 1.288 1.688 1.688 0 0 1-1.288-2 1.686 1.686 0 0 1 2-1.29ZM59.738.49h3.771v.034c-.941.083-1.933.366-2.936.867a9.092 9.092 0 0 0-.835-.901Zm3.771 27.013v.461l-.064-.093-.477.307-.31-.478-.602.395.304.477-.478.307.395.608.472-.307.312.475.448-.288v.752l-5.28-1.133-3.797 17.613c-.875 4.061.488 8.267 3.493 10.728 2.024-.707 4.2-3.323 5.259-8.243l.325-1.512v1.766l-.133.09.133.208v5.77c-1.328 2.422-3.147 4.006-5.36 4.937-4.781-3.192-7.379-9.317-6.368-13.973l4.4-20.451 7.328 1.584Zm0 33.221V64h-4.955a19.093 19.093 0 0 0 4.955-3.275Zm0-29.55v.353l-.824 3.824-2.33-.501.895-4.16 2.26.485Zm0 4.353v4.432l-1.736-.37.912-4.238.824.176Zm-6.872-8.187-.307-.477.603-.392.312.48.477-.31.395.609-.48.304.31.477-.614.4-.304-.48-.48.304-.387-.603.475-.312Zm6.872 1.35v.325l-.157-.232.157-.093ZM52.592 46.676l-.307-.482.605-.392.31.48.48-.307.392.603-.478.312.307.474-.608.398-.312-.48-.477.312-.395-.608.483-.31Zm4.624 11.632-.312-.485.608-.39.312.478.477-.312.395.61-.483.307.31.478-.603.392-.312-.475-.48.301-.387-.602.475-.302Zm-2.75-20.95-.309-.48.613-.394.31.486.474-.31.39.606-.475.306.301.48-.602.39-.31-.472-.472.306-.397-.61.477-.307Zm4.976 1.726.912-4.234-2.29-.496-.912 4.234 2.29.496Zm-.34 12.91-.865 3.992c.973-.544 1.984-1.71 2.827-3.568l-1.963-.424Zm-2.337-.5-1.381-.295c.176.947.47 1.843.877 2.656l.504-2.36Zm.904-4.172.899-4.203-2.288-.493-.816 3.797c-.027.133-.056.275-.08.41l2.285.489Zm2.325.5-2.325-.5-.904 4.173 2.336.499.893-4.171Zm.91-4.196-.91 4.197 2.36.51.904-4.203-2.354-.504Zm-2.336-.507 2.336.507.87-4.038-2.332-.504-.874 4.035Zm-9.155 8.699c-2.557 3.634-5.784 5.394-9.696 6.52 4.533 4.522 9.944 5.682 15.952 3.485-2.96-2.65-5.219-5.51-6.256-10.005Zm-2.645 4.38c-.419-.09-1.542.156-1.603.438l-.68 3.176c-.061.267.939.934 1.304.934l.979-4.547Zm1.39-.042c.503.11.236.054.738.158.517.114.781.482.733.7l-.899 4.174c-.064.312-.504.427-.869.35-.499-.11-.493-.11-.84-.184-.35-.072-.77-.427-.715-.688l.902-4.166c.045-.23.485-.448.95-.344Zm1.967.755c.424.093 1.35.781 1.285 1.064l-.688 3.181c-.056.267-1.245.47-1.576.312l.98-4.557Zm-9.784-34.403 13.603 2.928-4.408 20.454c-1 4.653-5.856 9.178-11.48 10.12-2.507-2.734-3.53-6.52-2.382-11.843l4.667-21.659Zm5.275 8.77c.31.073.51.38.44.68a.557.557 0 0 1-.67.438.57.57 0 0 1 .23-1.117Zm4.584 6.91a.57.57 0 0 1-.232 1.115.567.567 0 0 1-.443-.672.566.566 0 0 1 .675-.443Zm-7.019 4.41a.565.565 0 0 1 .44.673.574.574 0 0 1-.677.443.578.578 0 0 1-.44-.678c.07-.312.37-.51.677-.437Zm-4.555-6.903a.57.57 0 0 1 .435.675.567.567 0 0 1-.675.437.57.57 0 1 1 .24-1.112Zm.944 1.045c-.693-1.245.08-3.75 1.934-3.16.746-1.63 2.661-1.704 3.704-.381 1.52-.744 3.458.267 3.117 1.853 2.024.37 1.605 2.814.608 3.704.539 1.224-.08 3.624-2.08 3.123-.344 1.595-2.52 1.715-3.6.413-1.499.77-3.216-.08-3.221-1.874-1.934-.22-1.603-2.824-.462-3.678Zm8.243 1.016c.803-.656.317-1.762-1.4-1.157-.232.077-.408-.061-.2-.307 1.032-1.23.384-2.397-1.09-1.485-.16.101-.457.043-.558-.117-.96-1.44-2.035-.643-1.605.904.09.306-.13.362-.304.192-1.326-1.254-2.23-.411-1.758.48.2.392.027 1.234-.312 1.458-.808.584-.32 1.755 1.4 1.155.232-.083.403.064.2.31-1.034 1.223-.38 2.389 1.091 1.477.163-.094.453-.04.555.12.96 1.437 2.037.648 1.602-.902-.088-.306.136-.362.312-.197 1.32 1.261 2.323.317 1.755-.475-.237-.322-.048-1.213.312-1.456Zm-4.421.323-1.518-.323.318-1.47 1.514.324.323-1.494 1.445.315-.328 1.49 1.51.318-.32 1.475-1.504-.323-.323 1.499-1.445-.312.328-1.5Z" fill="#FFF" mask="url(#b)"/></g><path d="M83.287 38.987h4.454l-2.112-7.421h-.22l-2.122 7.421ZM80 44.737 84.363 30.5h2.372l4.344 14.237h-1.643l-1.266-4.433h-5.26l-1.248 4.433H80Zm15.664-.17-3.683-10.125h1.448l2.969 8.228 2.663-8.228h1.437l-3.49 10.473c-.476 1.41-.982 2.36-1.518 2.848-.54.491-1.271.737-2.195.737-.157 0-.313-.008-.465-.03a3.323 3.323 0 0 1-.44-.083l.011-1.32c.148.036.287.06.423.07.137.02.263.025.37.025.696 0 1.231-.192 1.598-.577.366-.386.655-1.055.872-2.018Zm14.631-10.125v10.295h-1.293v-1.554c-.562.596-1.116 1.036-1.67 1.313a3.796 3.796 0 0 1-1.734.416c-.846 0-1.5-.248-1.96-.745-.458-.496-.693-1.2-.693-2.11v-7.615h1.405v7.087c0 .769.131 1.316.388 1.648.255.33.675.494 1.253.494.5 0 .993-.13 1.467-.38.476-.251.953-.64 1.421-1.169v-7.68h1.416Zm3.924 10.295V34.442h1.31v1.556c.556-.596 1.11-1.033 1.656-1.316a3.716 3.716 0 0 1 1.718-.419c.854 0 1.513.243 1.97.748.46.499.691 1.203.691 2.104v7.622h-1.384v-7.085c0-.766-.131-1.317-.388-1.654-.257-.329-.674-.496-1.255-.496a3.06 3.06 0 0 0-1.486.391c-.482.259-.96.645-1.43 1.165v7.679h-1.402Zm15.225-1.241v1.208a4.568 4.568 0 0 1-.685.157c-.246.037-.52.05-.827.05-.763 0-1.35-.166-1.74-.498-.388-.332-.586-.831-.586-1.503v-7.246h-1.515v-1.222h1.515v-3.327h1.49v3.327h2.327v1.222h-2.326v6.59c0 .594.088.974.275 1.142.185.17.538.256 1.068.256.255 0 .57-.049.956-.146l.048-.01Zm7.966-1.465v-2.822c-1.705.345-2.912.739-3.632 1.181-.718.445-1.079 1.007-1.079 1.692 0 .47.153.842.45 1.12.3.272.706.41 1.218.41.436 0 .9-.127 1.397-.384.498-.253 1.047-.652 1.646-1.197Zm-.056 1.31c-.477.521-.982.91-1.523 1.163a3.897 3.897 0 0 1-1.719.386c-.832 0-1.512-.259-2.034-.785-.522-.523-.779-1.208-.779-2.047 0-1.071.466-1.935 1.4-2.58.937-.647 2.505-1.184 4.711-1.616v-.747c0-.472-.187-.855-.57-1.16-.38-.305-.873-.453-1.478-.453-.554 0-1.04.137-1.47.41-.427.275-.767.68-1.03 1.203l-1.228-.66c.372-.727.883-1.274 1.515-1.641.645-.37 1.402-.55 2.291-.55 1.081 0 1.93.267 2.524.798.597.54.894 1.29.894 2.25v5.752c0 .262.022.523.06.774.029.262.082.513.149.747v.152h-1.563l-.15-1.395Zm5.249 1.396V34.442h1.311v1.556c.57-.61 1.12-1.057 1.641-1.327a3.574 3.574 0 0 1 1.695-.408c.626 0 1.156.146 1.568.443.407.291.712.723.894 1.292.565-.607 1.12-1.05 1.652-1.327a3.73 3.73 0 0 1 1.737-.408c.83 0 1.477.243 1.927.742.455.497.685 1.2.685 2.11v7.622h-1.4v-7.158c0-.736-.13-1.268-.382-1.594-.252-.321-.659-.483-1.224-.483-.51 0-1.003.124-1.474.383-.466.253-.93.642-1.395 1.173v7.679h-1.354v-7.123c0-.742-.132-1.279-.383-1.616-.254-.329-.67-.496-1.242-.496-.498 0-.98.121-1.435.37-.455.248-.929.641-1.416 1.186v7.679h-1.405ZM159.52 32.24h1.683V30.5h-1.683v1.74Zm.12 12.497h1.448V34.442h-1.448v10.295Zm6.073-6.081h4.98c-.017-.982-.242-1.757-.68-2.326-.445-.567-1.031-.847-1.773-.847-.763 0-1.365.275-1.804.828-.433.553-.68 1.336-.723 2.345Zm5.664 3.191 1.039.653c-.396.823-.929 1.427-1.598 1.824-.67.396-1.496.588-2.484.588-1.328 0-2.347-.459-3.043-1.368-.704-.906-1.055-2.231-1.055-3.968 0-1.657.356-2.952 1.065-3.896.707-.95 1.684-1.417 2.918-1.417 1.26 0 2.238.454 2.934 1.36.698.912 1.043 2.185 1.043 3.818v.434h-6.501v.337c0 1.063.254 1.91.757 2.539.506.626 1.175.939 2.018.939.643 0 1.213-.154 1.708-.478.503-.31.9-.771 1.2-1.365Zm3.815 2.89V34.442h1.309v1.556c.559-.596 1.108-1.033 1.656-1.316a3.716 3.716 0 0 1 1.719-.419c.848 0 1.507.243 1.973.748.455.499.69 1.203.69 2.104v7.622h-1.386v-7.085c0-.766-.131-1.317-.388-1.654-.255-.329-.672-.496-1.253-.496a3.08 3.08 0 0 0-1.491.391c-.482.259-.956.645-1.427 1.165v7.679h-1.402Zm15.225-1.241v1.208a4.568 4.568 0 0 1-.685.157 5.484 5.484 0 0 1-.828.05c-.768 0-1.346-.166-1.74-.498-.39-.332-.586-.831-.586-1.503v-7.246h-1.515v-1.222h1.515v-3.327h1.491v3.327h2.326v1.222h-2.326v6.59c0 .594.089.974.273 1.142.188.17.544.256 1.071.256.252 0 .57-.049.95-.146l.054-.01Zm3.137-3.92c0 1.348.24 2.374.725 3.08.487.713 1.183 1.063 2.093 1.063.902 0 1.593-.35 2.075-1.063.476-.706.72-1.726.72-3.059 0-1.343-.238-2.36-.715-3.062-.476-.704-1.172-1.052-2.08-1.052-.91 0-1.606.348-2.093 1.052-.484.702-.725 1.716-.725 3.04Zm-1.438 0c0-1.687.37-2.995 1.12-3.92.74-.931 1.787-1.393 3.136-1.393 1.347 0 2.393.462 3.14 1.393.75.925 1.124 2.233 1.124 3.92 0 1.694-.374 3.008-1.124 3.938-.747.934-1.793 1.398-3.14 1.398-1.349 0-2.395-.464-3.137-1.398-.75-.93-1.119-2.244-1.119-3.938Zm23.237-2.555c-.359-.543-.758-.942-1.191-1.198a2.812 2.812 0 0 0-1.46-.38c-.834 0-1.485.347-1.942 1.044-.466.7-.702 1.683-.702 2.954 0 1.424.236 2.49.702 3.194.457.704 1.159 1.055 2.096 1.055.516 0 .982-.127 1.405-.38.417-.262.79-.643 1.092-1.147V37.02Zm1.419-6.521v11.029c0 .877.005 1.535.024 1.977.026.443.058.858.104 1.23h-1.087l-.334-1.292c-.38.51-.8.882-1.245 1.106-.45.23-.982.34-1.609.34-1.271 0-2.259-.464-2.965-1.405-.71-.936-1.06-2.256-1.06-3.945 0-1.688.356-2.989 1.07-3.903.712-.918 1.721-1.374 3.033-1.374.602 0 1.124.111 1.568.338.445.226.806.566 1.082 1.022V30.5h1.419Zm4.526 8.156h4.976c-.014-.982-.238-1.757-.683-2.326-.439-.567-1.03-.847-1.77-.847-.762 0-1.361.275-1.8.828-.44.553-.68 1.336-.723 2.345Zm5.661 3.191L228 42.5c-.401.823-.937 1.427-1.6 1.824-.67.396-1.494.588-2.482.588-1.33 0-2.347-.459-3.043-1.368-.707-.906-1.057-2.231-1.057-3.968 0-1.657.356-2.952 1.062-3.896.71-.95 1.684-1.417 2.923-1.417 1.258 0 2.238.454 2.931 1.36.701.912 1.047 2.185 1.047 3.818v.434h-6.505v.337c0 1.063.252 1.91.758 2.539.508.626 1.178.939 2.013.939.65 0 1.218-.154 1.716-.478.503-.31.899-.771 1.196-1.365Z" fill="#FFF"/><g transform="translate(80.389 54.059)"><mask id="d" fill="#fff"><use xlink:href="#c"/></mask><path d="M5.65 19.168 0 .252h3.565L7.88 15.683 12.147.252h3.578l-5.637 18.916H5.65Zm19.58-6.64c-1.55.217-2.682.551-3.389 1.01-.714.46-1.07 1.09-1.07 1.874 0 .464.128.83.383 1.083.26.257.615.383 1.078.383a3.5 3.5 0 0 0 1.51-.357c.492-.24.993-.602 1.488-1.084v-2.91Zm.356 6.64-.276-1.197a7.103 7.103 0 0 1-1.946 1.01 6.653 6.653 0 0 1-2.12.334c-1.134 0-2.02-.319-2.67-.97-.646-.637-.972-1.526-.972-2.662 0-1.49.623-2.668 1.873-3.525 1.248-.862 3.202-1.454 5.854-1.784V9.311c0-.496-.163-.89-.495-1.16-.34-.273-.811-.41-1.43-.41-.62 0-1.18.131-1.688.4-.5.259-.935.653-1.296 1.17l-2.184-1.385c.567-.884 1.285-1.543 2.155-1.988.872-.444 1.895-.67 3.06-.67 1.576 0 2.804.354 3.682 1.067.88.712 1.322 1.706 1.322 2.976v8.011c0 .215.016.47.054.77.03.302.08.658.15 1.076h-3.073Zm8.573 0h3.226V.252h-3.226v18.916Zm16.596-3.627V9.067c-.445-.41-.862-.696-1.234-.876a2.745 2.745 0 0 0-1.175-.265c-.894 0-1.596.386-2.102 1.165-.513.78-.765 1.864-.765 3.255 0 1.392.252 2.475.765 3.233.506.758 1.218 1.135 2.126 1.135a2.71 2.71 0 0 0 1.183-.268c.372-.176.768-.479 1.202-.905Zm.47 2.162c-.481.586-1.02 1.02-1.621 1.299-.595.281-1.274.418-2.048.418-1.563 0-2.84-.654-3.838-1.97-.993-1.312-1.489-3.018-1.489-5.104 0-2.108.485-3.815 1.451-5.122.97-1.302 2.22-1.955 3.75-1.955.685 0 1.285.123 1.82.37.522.246 1.023.64 1.505 1.194V.252h3.147v15.74c0 .326.016.765.04 1.293.027.533.065 1.16.11 1.883h-2.481l-.345-1.465Zm10.697-7.12h4.975c0-.91-.22-1.618-.658-2.124-.439-.506-1.05-.763-1.817-.763-.729 0-1.31.251-1.748.758-.434.506-.69 1.213-.752 2.129Zm7.981 5.906c-.516.962-1.234 1.696-2.157 2.191-.92.493-2.013.74-3.274.74-1.82 0-3.236-.62-4.25-1.854-1.02-1.24-1.526-2.965-1.526-5.194 0-2.228.506-3.972 1.515-5.22 1.01-1.251 2.417-1.883 4.21-1.883 1.789 0 3.167.605 4.16 1.813.982 1.214 1.475 2.914 1.475 5.11 0 .076-.005.191-.016.346-.006.164-.01.274-.01.351l-8.162.016c.016 1.289.268 2.256.75 2.904.479.643 1.196.972 2.14.972.598 0 1.112-.139 1.55-.412.434-.276.846-.726 1.235-1.34l2.36 1.46Zm8.116-.833c.444.4.862.691 1.242.87.388.183.784.277 1.188.277.9 0 1.598-.397 2.107-1.182.506-.784.763-1.883.763-3.275 0-1.39-.252-2.47-.752-3.228-.509-.764-1.218-1.147-2.144-1.147-.402 0-.8.1-1.18.29-.389.193-.796.5-1.224.918v6.477Zm0 2.21v6.241h-3.153V5.534h2.337l.345 1.487c.58-.625 1.159-1.075 1.729-1.34.57-.278 1.223-.412 1.962-.412 1.563 0 2.837.653 3.825 1.971.985 1.313 1.475 3.014 1.475 5.106 0 2.113-.48 3.825-1.448 5.121-.972 1.304-2.217 1.953-3.753 1.953-.685 0-1.288-.12-1.81-.367-.532-.247-1.035-.643-1.51-1.187Zm15.626-7.283h4.976c0-.91-.22-1.618-.658-2.124-.445-.506-1.052-.763-1.82-.763-.726 0-1.307.251-1.746.758-.433.506-.69 1.213-.752 2.129Zm7.982 5.906c-.511.962-1.234 1.696-2.16 2.191-.918.493-2.013.74-3.271.74-1.82 0-3.236-.62-4.25-1.854-1.02-1.24-1.529-2.965-1.529-5.194 0-2.228.509-3.972 1.518-5.22 1.009-1.251 2.414-1.883 4.207-1.883 1.783 0 3.175.605 4.157 1.813.983 1.214 1.48 2.914 1.48 5.11 0 .076-.005.191-.01.346-.01.164-.016.274-.016.351l-8.161.016c.016 1.289.267 2.256.746 2.904.482.643 1.2.972 2.15.972.591 0 1.108-.139 1.542-.412.433-.276.848-.726 1.233-1.34l2.364 1.46Zm4.936 2.679V5.534h2.968v1.612c.846-.685 1.59-1.173 2.227-1.449a4.825 4.825 0 0 1 1.975-.428c1.266 0 2.222.375 2.862 1.12.637.747.955 1.845.955 3.31v9.469h-3.22v-8.842c0-.89-.115-1.51-.356-1.878-.235-.372-.637-.549-1.196-.549-.471 0-.956.12-1.448.367-.498.244-1.02.627-1.569 1.144v9.758h-3.198ZM116.063 0c-.218 1.047-.547 1.824-.98 2.333a2.1 2.1 0 0 1-1.657.753c-.188 0-.356-.011-.506-.032a2.803 2.803 0 0 1-.434-.094l-1.13-.346c-.163-.04-.31-.077-.444-.099a2.459 2.459 0 0 0-.383-.032c-.286 0-.516.08-.695.236-.177.163-.319.415-.423.76h-1.395c.204-1.025.517-1.778.94-2.26.422-.488.971-.729 1.651-.729.18 0 .356.016.54.046.183.03.365.072.566.136l1.164.308c.099.038.209.067.324.086.115.016.24.027.377.027.27 0 .495-.094.68-.279.182-.176.319-.452.412-.814h1.392Zm13.888 12.528c-1.547.217-2.682.551-3.394 1.01-.704.46-1.06 1.09-1.06 1.874 0 .464.12.83.38 1.083.257.257.613.383 1.079.383.506 0 1.01-.12 1.504-.357.493-.24.993-.602 1.491-1.084v-2.91Zm.362 6.64-.284-1.197a7.014 7.014 0 0 1-1.943 1.01 6.649 6.649 0 0 1-2.118.334c-1.135 0-2.023-.319-2.676-.97-.645-.637-.97-1.526-.97-2.662 0-1.49.63-2.668 1.874-3.525 1.248-.862 3.199-1.454 5.854-1.784V9.311c0-.496-.16-.89-.495-1.16-.34-.273-.811-.41-1.43-.41-.62 0-1.18.131-1.688.4-.5.259-.934.653-1.296 1.17l-2.184-1.385c.565-.884 1.285-1.543 2.157-1.988.87-.444 1.893-.67 3.06-.67 1.58 0 2.802.354 3.68 1.067.884.712 1.323 1.706 1.323 2.976v8.011c0 .215.016.47.053.77.03.302.083.658.15 1.076h-3.067Zm7.422-2.486 2.181-1.709c.517.664 1.028 1.16 1.542 1.479.506.316 1.036.477 1.585.477.578 0 1.044-.137 1.378-.408.34-.273.509-.64.509-1.109 0-.68-.712-1.288-2.144-1.81a6.342 6.342 0 0 0-.34-.137c-1.7-.648-2.84-1.267-3.405-1.872-.573-.603-.862-1.377-.862-2.339 0-1.167.434-2.118 1.304-2.866.867-.744 1.997-1.12 3.38-1.12.932 0 1.767.172 2.516.507.753.34 1.443.862 2.08 1.575l-2.034 1.768c-.44-.466-.878-.812-1.312-1.037a2.87 2.87 0 0 0-1.338-.34c-.543 0-.966.126-1.277.367-.308.241-.457.57-.457.983 0 .509.709 1.031 2.14 1.564.384.142.68.258.9.34 1.448.56 2.43 1.147 2.955 1.774.528.618.79 1.454.79 2.496 0 1.262-.434 2.277-1.304 3.04-.867.77-2.02 1.15-3.46 1.15-1.12 0-2.112-.22-2.969-.67-.851-.44-1.635-1.144-2.358-2.103Z" fill="#FFF" mask="url(#d)"/></g><path d="M5.731 14.168c2.8 0 4.158-1.4 4.158-3.038 0-3.598-5.698-2.352-5.698-4.158 0-.616.518-1.12 1.862-1.12.868 0 1.806.252 2.716.77l.7-1.722c-.91-.574-2.17-.868-3.402-.868-2.786 0-4.13 1.386-4.13 3.052 0 3.64 5.698 2.38 5.698 4.214 0 .602-.546 1.05-1.89 1.05-1.176 0-2.408-.42-3.234-1.022l-.77 1.708c.868.672 2.436 1.134 3.99 1.134Zm13.3-.168v-1.82h-5.334V9.912h4.55V8.148h-4.55V6.02h5.152V4.2h-7.406V14h7.588Zm4.074 0v-2.73h2.086l1.89 2.73h2.436l-2.198-3.15c1.274-.546 2.016-1.624 2.016-3.094 0-2.198-1.638-3.556-4.256-3.556h-4.242V14h2.268Zm1.848-4.536h-1.848V6.048h1.848c1.386 0 2.086.63 2.086 1.708 0 1.064-.7 1.708-2.086 1.708ZM36.307 14l4.242-9.8h-2.254l-3.024 7-2.982-7h-2.45l4.228 9.8h2.24Zm7.532 0V4.2h-2.268V14h2.268Zm7.014.168c1.708 0 3.122-.616 4.046-1.75l-1.456-1.344c-.658.77-1.484 1.162-2.464 1.162-1.834 0-3.136-1.288-3.136-3.136s1.302-3.136 3.136-3.136c.98 0 1.806.392 2.464 1.148l1.456-1.344c-.924-1.12-2.338-1.736-4.032-1.736-3.052 0-5.32 2.114-5.32 5.068 0 2.954 2.268 5.068 5.306 5.068Zm7.84-.168V4.2h-2.268V14h2.268Zm7.07.168c3.08 0 5.362-2.142 5.362-5.068 0-2.926-2.282-5.068-5.362-5.068-3.094 0-5.362 2.156-5.362 5.068 0 2.912 2.268 5.068 5.362 5.068Zm0-1.932c-1.75 0-3.066-1.274-3.066-3.136s1.316-3.136 3.066-3.136c1.75 0 3.066 1.274 3.066 3.136s-1.316 3.136-3.066 3.136ZM81.247 14c3.206 0 5.404-1.932 5.404-4.9 0-2.968-2.198-4.9-5.404-4.9h-4.452V14h4.452Zm-.112-1.862h-2.072V6.062h2.072c1.946 0 3.22 1.162 3.22 3.038s-1.274 3.038-3.22 3.038ZM95.947 14v-1.82h-5.334V9.912h4.55V8.148h-4.55V6.02h5.152V4.2h-7.406V14h7.588Zm12.95 0v-1.848h-4.914V4.2h-2.268V14h7.182Zm3.542 0V4.2h-2.268V14h2.268Zm4.452 0V8.246l2.87 4.718h1.022l2.884-4.844.014 5.88h2.128l-.028-9.8h-1.862l-3.612 6.09-3.668-6.09h-1.876V14h2.128Zm13.51 0v-2.702h1.974c2.618 0 4.256-1.358 4.256-3.542 0-2.198-1.638-3.556-4.256-3.556h-4.242V14h2.268Zm1.848-4.55h-1.848V6.048h1.848c1.386 0 2.086.63 2.086 1.708 0 1.064-.7 1.694-2.086 1.694Zm8.4 4.55V4.2h-2.268V14h2.268Zm9.912 0v-1.82h-5.334V9.912h4.55V8.148h-4.55V6.02h5.152V4.2h-7.406V14h7.588Zm9.744 0v-1.848h-5.572l5.362-6.482V4.2h-8.246v1.848h5.264l-5.376 6.482V14h8.568Zm2.492 0 .868-2.1h4.55l.868 2.1h2.38l-4.382-9.8h-2.24l-4.368 9.8h2.324Zm4.704-3.822h-3.108l1.554-3.752 1.554 3.752ZM181.627 14l4.242-9.8h-2.254l-3.024 7-2.982-7h-2.45l4.228 9.8h2.24Zm7.532 0V4.2h-2.268V14h2.268Zm3.36 0 .868-2.1h4.55l.868 2.1h2.38l-4.382-9.8h-2.24l-4.368 9.8h2.324Zm4.704-3.822h-3.108l1.554-3.752 1.554 3.752ZM204.475 14v-2.73h2.086l1.89 2.73h2.436l-2.198-3.15c1.274-.546 2.016-1.624 2.016-3.094 0-2.198-1.638-3.556-4.256-3.556h-4.242V14h2.268Zm1.848-4.536h-1.848V6.048h1.848c1.386 0 2.086.63 2.086 1.708 0 1.064-.7 1.708-2.086 1.708ZM214.765 14V4.2h-2.268V14h2.268Zm3.36 0 .868-2.1h4.55l.868 2.1h2.38l-4.382-9.8h-2.24l-4.368 9.8h2.324Zm4.704-3.822h-3.108l1.554-3.752 1.554 3.752ZM7.316 100.112c1.526 0 2.842-.532 3.738-1.54l-.91-.882c-.756.798-1.68 1.176-2.758 1.176-2.212 0-3.85-1.596-3.85-3.766s1.638-3.766 3.85-3.766c1.078 0 2.002.364 2.758 1.162l.91-.882c-.896-1.008-2.212-1.526-3.724-1.526-2.982 0-5.194 2.114-5.194 5.012 0 2.898 2.212 5.012 5.18 5.012Zm8.714-.028c2.226 0 3.85-1.582 3.85-3.794 0-2.212-1.624-3.78-3.85-3.78s-3.864 1.568-3.864 3.78c0 2.212 1.638 3.794 3.864 3.794Zm0-1.176c-1.428 0-2.506-1.036-2.506-2.618 0-1.582 1.078-2.604 2.506-2.604 1.428 0 2.492 1.022 2.492 2.604s-1.064 2.618-2.492 2.618ZM23.386 100v-3.822c0-1.61.924-2.464 2.352-2.464 1.274 0 2.002.714 2.002 2.17V100h1.344v-4.27c0-2.184-1.274-3.22-3.08-3.22-1.176 0-2.128.434-2.674 1.19v-1.12h-1.288V100h1.344Zm11.766.084c1.33 0 2.436-.56 3.024-1.596l-1.022-.644c-.476.728-1.204 1.064-2.016 1.064-1.456 0-2.548-1.008-2.548-2.618 0-1.582 1.092-2.604 2.548-2.604.812 0 1.54.336 2.016 1.064l1.022-.658c-.588-1.036-1.694-1.582-3.024-1.582-2.282 0-3.92 1.568-3.92 3.78 0 2.212 1.638 3.794 3.92 3.794Zm8.252 0c1.232 0 2.254-.42 2.926-1.204l-.742-.868c-.546.602-1.274.896-2.142.896-1.47 0-2.52-.868-2.688-2.17h6.02c.014-.126.028-.294.028-.406 0-2.282-1.526-3.822-3.668-3.822-2.142 0-3.724 1.582-3.724 3.78 0 2.212 1.596 3.794 3.99 3.794Zm2.114-4.312h-4.76c.14-1.26 1.092-2.128 2.38-2.128 1.302 0 2.24.882 2.38 2.128Zm4.192-4.62c.532 0 .91-.392.91-.896 0-.476-.392-.854-.91-.854s-.91.392-.91.882.392.868.91.868ZM48.016 102.8c1.526 0 2.366-.952 2.366-2.464V92.58h-1.344v7.784c0 .854-.392 1.302-1.106 1.302-.434 0-.826-.126-1.092-.35l-.434 1.036c.378.308.994.448 1.61.448Zm7.398-2.716c1.162 0 1.988-.392 2.436-1.064v.98h1.274v-4.48c0-2.03-1.148-3.01-3.178-3.01-1.19 0-2.296.336-3.066.952l.56 1.008c.574-.49 1.47-.798 2.352-.798 1.33 0 1.988.658 1.988 1.792v.266h-2.128c-2.212 0-2.982.98-2.982 2.17 0 1.288 1.064 2.184 2.744 2.184Zm.224-1.036c-1.022 0-1.638-.462-1.638-1.204 0-.63.378-1.148 1.708-1.148h2.072v1.036c-.336.854-1.134 1.316-2.142 1.316Zm7.622.952V89.612h-1.344V100h1.344Zm3.744-8.498 2.352-1.82h-1.708l-1.904 1.82h1.26Zm.462 8.498v-7.42h-1.344V100h1.344Zm5.032.084c1.162 0 1.988-.392 2.436-1.064v.98h1.274v-4.48c0-2.03-1.148-3.01-3.178-3.01-1.19 0-2.296.336-3.066.952l.56 1.008c.574-.49 1.47-.798 2.352-.798 1.33 0 1.988.658 1.988 1.792v.266h-2.128c-2.212 0-2.982.98-2.982 2.17 0 1.288 1.064 2.184 2.744 2.184Zm.224-1.036c-1.022 0-1.638-.462-1.638-1.204 0-.63.378-1.148 1.708-1.148h2.072v1.036c-.336.854-1.134 1.316-2.142 1.316Zm13.41 1.036c1.092 0 2.044-.42 2.646-1.26V100h1.288V89.612h-1.344V93.7c-.616-.798-1.54-1.19-2.59-1.19-2.17 0-3.752 1.512-3.752 3.78s1.582 3.794 3.752 3.794Zm.112-1.176c-1.428 0-2.506-1.036-2.506-2.618 0-1.582 1.078-2.604 2.506-2.604 1.414 0 2.492 1.022 2.492 2.604s-1.078 2.618-2.492 2.618Zm9.974 1.176c1.232 0 2.254-.42 2.926-1.204l-.742-.868c-.546.602-1.274.896-2.142.896-1.47 0-2.52-.868-2.688-2.17h6.02c.014-.126.028-.294.028-.406 0-2.282-1.526-3.822-3.668-3.822-2.142 0-3.724 1.582-3.724 3.78 0 2.212 1.596 3.794 3.99 3.794Zm2.114-4.312h-4.76c.14-1.26 1.092-2.128 2.38-2.128 1.302 0 2.24.882 2.38 2.128Zm9.056 4.228v-7.098l3.542 5.908h.644l3.542-5.95.014 7.14h1.344l-.014-9.8h-1.148l-4.032 6.888-4.088-6.888h-1.148v9.8h1.344Zm15.434.084c1.232 0 2.254-.42 2.926-1.204l-.742-.868c-.546.602-1.274.896-2.142.896-1.47 0-2.52-.868-2.688-2.17h6.02c.014-.126.028-.294.028-.406 0-2.282-1.526-3.822-3.668-3.822-2.142 0-3.724 1.582-3.724 3.78 0 2.212 1.596 3.794 3.99 3.794Zm2.114-4.312h-4.76c.14-1.26 1.092-2.128 2.38-2.128 1.302 0 2.24.882 2.38 2.128Zm6.516 4.312c1.092 0 2.044-.42 2.646-1.26V100h1.288V89.612h-1.344V93.7c-.616-.798-1.54-1.19-2.59-1.19-2.17 0-3.752 1.512-3.752 3.78s1.582 3.794 3.752 3.794Zm.112-1.176c-1.428 0-2.506-1.036-2.506-2.618 0-1.582 1.078-2.604 2.506-2.604 1.414 0 2.492 1.022 2.492 2.604s-1.078 2.618-2.492 2.618Zm7.342-7.756c.532 0 .91-.392.91-.896 0-.476-.392-.854-.91-.854s-.91.392-.91.882.392.868.91.868Zm.672 8.848v-7.42h-1.344V100h1.344Zm6.04.084c2.226 0 3.85-1.582 3.85-3.794 0-2.212-1.624-3.78-3.85-3.78s-3.864 1.568-3.864 3.78c0 2.212 1.638 3.794 3.864 3.794Zm0-1.176c-1.428 0-2.506-1.036-2.506-2.618 0-1.582 1.078-2.604 2.506-2.604 1.428 0 2.492 1.022 2.492 2.604s-1.064 2.618-2.492 2.618ZM155.85 100l1.078-2.45h5.208l1.078 2.45h1.47l-4.452-9.8h-1.386l-4.438 9.8h1.442Zm5.796-3.57h-4.228l2.114-4.802 2.114 4.802Zm5.942 3.57v-3.822c0-1.61.882-2.464 2.226-2.464 1.218 0 1.918.714 1.918 2.17V100h1.344v-3.822c0-1.61.882-2.464 2.226-2.464 1.218 0 1.918.714 1.918 2.17V100h1.344v-4.27c0-2.184-1.232-3.22-3.038-3.22-1.26 0-2.296.532-2.856 1.372-.49-.924-1.442-1.372-2.576-1.372-1.12 0-2.03.42-2.562 1.176V92.58h-1.288V100h1.344Zm17.688.084c2.17 0 3.752-1.526 3.752-3.794s-1.582-3.78-3.752-3.78c-1.05 0-1.974.392-2.59 1.19v-4.088h-1.344V100h1.288v-1.176c.602.84 1.554 1.26 2.646 1.26Zm-.112-1.176c-1.414 0-2.492-1.036-2.492-2.618 0-1.582 1.078-2.604 2.492-2.604 1.428 0 2.506 1.022 2.506 2.604s-1.078 2.618-2.506 2.618Zm6.698-7.756c.532 0 .91-.392.91-.896 0-.476-.392-.854-.91-.854s-.91.392-.91.882.392.868.91.868Zm.672 8.848v-7.42h-1.344V100h1.344Zm6.166.084c1.232 0 2.254-.42 2.926-1.204l-.742-.868c-.546.602-1.274.896-2.142.896-1.47 0-2.52-.868-2.688-2.17h6.02c.014-.126.028-.294.028-.406 0-2.282-1.526-3.822-3.668-3.822-2.142 0-3.724 1.582-3.724 3.78 0 2.212 1.596 3.794 3.99 3.794Zm2.114-4.312h-4.76c.14-1.26 1.092-2.128 2.38-2.128 1.302 0 2.24.882 2.38 2.128Zm4.794 4.228v-3.822c0-1.61.924-2.464 2.352-2.464 1.274 0 2.002.714 2.002 2.17V100h1.344v-4.27c0-2.184-1.274-3.22-3.08-3.22-1.176 0-2.128.434-2.674 1.19v-1.12h-1.288V100h1.344Zm11.038.084c.602 0 1.218-.168 1.624-.518l-.42-.966c-.28.224-.658.35-1.05.35-.742 0-1.162-.448-1.162-1.246v-4.018h2.128V92.58h-2.128v-1.624h-1.344v1.624h-1.26v1.106h1.26v4.074c0 1.498.854 2.324 2.352 2.324Zm6.6 0c1.232 0 2.254-.42 2.926-1.204l-.742-.868c-.546.602-1.274.896-2.142.896-1.47 0-2.52-.868-2.688-2.17h6.02c.014-.126.028-.294.028-.406 0-2.282-1.526-3.822-3.668-3.822-2.142 0-3.724 1.582-3.724 3.78 0 2.212 1.596 3.794 3.99 3.794Zm2.114-4.312h-4.76c.14-1.26 1.092-2.128 2.38-2.128 1.302 0 2.24.882 2.38 2.128Z" fill="#FFF" fill-rule="nonzero"/><path stroke="#FFF" d="M1 18h227.215M1 86h227.215"/></g></svg>