<svg width="20" height="20" viewBox="0 0 20 20" xmlns="http://www.w3.org/2000/svg">
    <g stroke="#858585" stroke-width=".8" fill="none" fill-rule="evenodd" stroke-linecap="round" stroke-linejoin="round">
        <path d="m17.664 11.9.009.002a1.16 1.16 0 0 0 1.552-.95 8.979 8.979 0 0 0 0-2.305 1.16 1.16 0 0 0-1.552-.95l-.01.003c-.574.215-1.214-.082-1.466-.642a6.66 6.66 0 0 0-.672-1.17c-.363-.505-.303-1.196.177-1.591h.001a1.16 1.16 0 0 0-.049-1.823 9.175 9.175 0 0 0-1.983-1.144c-.694-.293-1.482.122-1.606.865-.104.617-.676 1.014-1.297.95a6.35 6.35 0 0 0-1.336 0c-.622.064-1.194-.333-1.296-.95-.124-.743-.912-1.158-1.607-.865-.71.299-1.376.684-1.983 1.144a1.16 1.16 0 0 0-.05 1.822h.001c.48.396.541 1.087.178 1.592a6.715 6.715 0 0 0-.673 1.17c-.25.56-.891.857-1.466.642l-.009-.003a1.16 1.16 0 0 0-1.553.95 8.982 8.982 0 0 0 0 2.305 1.16 1.16 0 0 0 1.553.95l.009-.003c.575-.215 1.216.083 1.466.643.186.413.411.805.673 1.17.363.504.302 1.195-.178 1.59v.001a1.16 1.16 0 0 0 .05 1.822c.606.46 1.271.845 1.982 1.145.695.292 1.483-.123 1.607-.866.102-.616.674-1.014 1.296-.949a6.35 6.35 0 0 0 1.336 0c.621-.065 1.193.333 1.297.95.124.742.912 1.157 1.606.865a9.21 9.21 0 0 0 1.983-1.145 1.16 1.16 0 0 0 .049-1.822h0c-.48-.396-.54-1.087-.178-1.592a6.66 6.66 0 0 0 .672-1.17c.252-.56.892-.857 1.467-.642h0z"/>
        <path d="M13.7 9.8a3.6 3.6 0 1 1-7.2 0 3.6 3.6 0 0 1 7.2 0h0z"/>
    </g>
</svg>
