<svg width="20" height="20" viewBox="0 0 20 20" xmlns="http://www.w3.org/2000/svg">
    <g stroke="#858585" stroke-width=".8" fill="none" fill-rule="evenodd" stroke-linecap="round" stroke-linejoin="round">
        <path d="M10.15 17.95c2.77-.904 6.3-4.637 6.3-7v-7c-1.925 0-4.747-.547-6.3-2.1-1.553 1.553-4.375 2.1-6.3 2.1v7c0 2.363 3.53 6.096 6.3 7h0z"/>
        <path d="M10.15 16.55c-2.322-1.015-4.9-4.174-4.9-5.6v-5.6c1.648-.176 3.47-.793 4.9-1.75 1.43.957 3.252 1.574 4.9 1.75v5.6c0 1.426-2.578 4.585-4.9 5.6h0z"/>
        <path d="M11.55 7.45a1.4 1.4 0 1 1-2.8 0 1.4 1.4 0 0 1 2.8 0h0z"/>
        <path d="M12.95 11.65a2.8 2.8 0 0 0-5.6 0h5.6z"/>
    </g>
</svg>
