<?xml version="1.0" encoding="UTF-8"?>
<svg width="22px" height="24px" viewBox="0 0 22 24" version="1.1" xmlns="http://www.w3.org/2000/svg" xmlns:xlink="http://www.w3.org/1999/xlink">
    <title>1A79263E-CF6C-4497-8B0E-CD8978720ED1</title>
    <g id="Symbols" stroke="none" stroke-width="1" fill="none" fill-rule="evenodd">
        <g id="Icono-/-Ubicación" fill="#4F5FE1" fill-rule="nonzero">
            <g id="ubicacion">
                <path d="M15.1788267,15.8571094 C17.84244,11.849625 17.5076,12.3495938 17.5843556,12.2451094 C18.5541156,10.9336406 19.0666667,9.39009375 19.0666667,7.78125 C19.0666667,3.5146875 15.4556844,0 11,0 C6.55883556,0 2.93333333,3.50775 2.93333333,7.78125 C2.93333333,9.3890625 3.45664,10.9730156 4.45817778,12.3021563 L6.82107556,15.8571563 C4.29474222,16.2293906 0,17.3386875 0,19.78125 C0,20.6716406 0.606124444,21.9405469 3.49369778,22.9293281 C5.50997333,23.61975 8.17573778,24 11,24 C16.2812222,24 22,22.571625 22,19.78125 C22,17.3382656 17.7102933,16.2301406 15.1788267,15.8571094 Z M5.68328444,11.5286719 C5.67521778,11.5165781 5.66680889,11.5047656 5.65800889,11.4931406 C4.8246,10.3938281 4.4,9.09098438 4.4,7.78125 C4.4,4.26478125 7.35318222,1.40625 11,1.40625 C14.63924,1.40625 17.6,4.26604688 17.6,7.78125 C17.6,9.09309375 17.1834178,10.3517344 16.3950844,11.4220781 C16.32444,11.5114219 16.6930133,10.9624219 11,19.5276094 L5.68328444,11.5286719 Z M11,22.59375 C5.23140444,22.59375 1.46666667,20.9679844 1.46666667,19.78125 C1.46666667,18.983625 3.40110222,17.6721094 7.68768,17.1608906 L10.3815556,21.2138438 C10.5161956,21.4164375 10.7493956,21.5390625 10.9999511,21.5390625 C11.2505067,21.5390625 11.4837556,21.4163906 11.6183467,21.2138438 L14.3121733,17.1608906 C18.5988489,17.6721094 20.5333333,18.983625 20.5333333,19.78125 C20.5333333,20.9579063 16.8024756,22.59375 11,22.59375 Z" id="Shape"></path>
                <path d="M11,4.265625 C8.9782,4.265625 7.33333333,5.84273438 7.33333333,7.78125 C7.33333333,9.71976563 8.9782,11.296875 11,11.296875 C13.0218,11.296875 14.6666667,9.71976563 14.6666667,7.78125 C14.6666667,5.84273438 13.0218,4.265625 11,4.265625 Z M11,9.890625 C9.78692,9.890625 8.8,8.94435937 8.8,7.78125 C8.8,6.61814063 9.78692,5.671875 11,5.671875 C12.21308,5.671875 13.2,6.61814063 13.2,7.78125 C13.2,8.94435937 12.21308,9.890625 11,9.890625 Z" id="Shape"></path>
            </g>
        </g>
    </g>
</svg>