<svg width="55" height="44" viewBox="0 0 55 44" xmlns="http://www.w3.org/2000/svg">
    <g fill="#858585" fill-rule="nonzero">
        <path d="M48.02 3.201H19.208A3.205 3.205 0 0 0 16.007 0h-4.269a3.205 3.205 0 0 0-3.201 3.201H7.47C3.35 3.201 0 6.552 0 10.671v25.611c0 4.119 3.35 7.47 7.47 7.47h40.55c4.12 0 7.47-3.351 7.47-7.47v-25.61c0-4.12-3.35-7.47-7.47-7.47zM11.738 2.134h4.269c.588 0 1.067.479 1.067 1.067H10.67c0-.588.479-1.067 1.067-1.067zM48.02 41.618H7.47a5.342 5.342 0 0 1-5.336-5.336V16.007h8.537a1.067 1.067 0 0 0 0-2.134H2.134V10.67A5.342 5.342 0 0 1 7.47 5.336h40.55a5.342 5.342 0 0 1 5.336 5.335v3.202H44.82a1.067 1.067 0 0 0 0 2.134h8.537v20.275a5.342 5.342 0 0 1-5.336 5.336z"/>
        <path d="M27.745 7.47c-8.826 0-16.007 7.18-16.007 16.007 0 8.826 7.181 16.007 16.007 16.007s16.007-7.181 16.007-16.007S36.572 7.47 27.745 7.47zm0 29.88c-7.65 0-13.872-6.224-13.872-13.873 0-7.65 6.223-13.873 13.872-13.873 7.65 0 13.873 6.223 13.873 13.873 0 7.65-6.223 13.872-13.873 13.872z"/>
        <path d="M27.745 11.738c-6.472 0-11.738 5.266-11.738 11.739 0 6.472 5.266 11.738 11.738 11.738 6.473 0 11.739-5.266 11.739-11.738 0-6.473-5.266-11.739-11.739-11.739zm0 21.343c-5.296 0-9.604-4.309-9.604-9.604 0-5.296 4.308-9.604 9.604-9.604 5.296 0 9.604 4.308 9.604 9.604 0 5.295-4.308 9.604-9.604 9.604z"/>
        <path d="M27.745 16.007a1.067 1.067 0 0 0 0 2.134 5.342 5.342 0 0 1 5.336 5.336 1.067 1.067 0 0 0 2.134 0c0-4.12-3.35-7.47-7.47-7.47zM46.953 12.805a3.205 3.205 0 0 0 3.202-3.2 3.205 3.205 0 0 0-3.202-3.202 3.205 3.205 0 0 0-3.201 3.201 3.205 3.205 0 0 0 3.201 3.201zm0-4.268a1.068 1.068 0 0 1 0 2.134 1.068 1.068 0 0 1 0-2.134z"/>
    </g>
</svg>
