<svg width="20" height="20" viewBox="0 0 20 20" xmlns="http://www.w3.org/2000/svg">
    <g fill="#858585" fill-rule="nonzero">
        <path d="M10 1c-4.963 0-9 4.037-9 9s4.037 9 9 9 9-4.037 9-9-4.037-9-9-9zm0 16.364c-4.06 0-7.364-3.304-7.364-7.364 0-4.06 3.304-7.364 7.364-7.364 4.06 0 7.364 3.304 7.364 7.364 0 4.06-3.304 7.364-7.364 7.364z"/>
        <path d="M10 4.818a1.092 1.092 0 1 0 1.09 1.091c0-.601-.489-1.09-1.09-1.09zM10 8.636a.818.818 0 0 0-.818.819v4.909a.818.818 0 0 0 1.636 0v-4.91A.818.818 0 0 0 10 8.637z"/>
    </g>
</svg>
