<svg width="20" height="20" viewBox="0 0 20 20" xmlns="http://www.w3.org/2000/svg">
    <g stroke="#858585" stroke-width=".8" fill="none" fill-rule="evenodd" stroke-linecap="round" stroke-linejoin="round">
        <path d="m2.342 17.042.416.416a1.54 1.54 0 0 0 2.272-.103l5.92-7.105-1.4-1.4-7.105 5.92a1.54 1.54 0 0 0-.103 2.272h0zM8.15 7.45l4.2 4.2 3.5-3.5-4.2-4.2z"/>
        <path d="M15.689 8.311 12.51 11.49a1.218 1.218 0 0 0 0 1.722l.002.002a1.75 1.75 0 0 0 2.474 0l2.426-2.426a1.75 1.75 0 0 0 0-2.474l-.002-.002a1.219 1.219 0 0 0-1.722 0h0zM11.489 4.111 8.31 7.29a1.218 1.218 0 0 1-1.722 0l-.002-.002a1.75 1.75 0 0 1 0-2.474l2.426-2.426a1.75 1.75 0 0 1 2.474 0l.002.002a1.218 1.218 0 0 1 0 1.722h0zM16.55 16.55h-4.113a1.4 1.4 0 0 0-1.4 1.4h6.913a1.4 1.4 0 0 0-1.4-1.4h0z"/>
    </g>
</svg>
