<svg width="13" height="14" viewBox="0 0 13 14" xmlns="http://www.w3.org/2000/svg">
    <path d="M11.324 1.516h-1.168v-.61a.406.406 0 0 0-.812 0v.61H3.656v-.61a.406.406 0 0 0-.812 0v.61H1.676C.752 1.516 0 2.267 0 3.19v8.633c0 .924.752 1.676 1.676 1.676h9.648c.924 0 1.676-.752 1.676-1.676V3.191c0-.924-.752-1.675-1.676-1.675zm-9.648.812h1.168v.406a.406.406 0 0 0 .812 0v-.406h5.688v.406a.406.406 0 0 0 .812 0v-.406h1.168c.476 0 .864.387.864.863v.965H.812v-.965c0-.476.388-.863.864-.863zm9.648 10.36H1.676a.864.864 0 0 1-.863-.864V4.97h11.374v6.855a.864.864 0 0 1-.863.864z" fill="#4D1D3D" fill-rule="nonzero"/>
</svg>
