<?xml version="1.0" encoding="UTF-8"?>
<svg width="11px" height="15px" viewBox="0 0 11 15" version="1.1" xmlns="http://www.w3.org/2000/svg" xmlns:xlink="http://www.w3.org/1999/xlink">
    <title>AD1669F9-954D-47C7-928F-5BC59B18BD07</title>
    <g id="Symbols" stroke="none" stroke-width="1" fill="none" fill-rule="evenodd">
        <g id="iconos-/-Ubicacion" fill="#979797" fill-rule="nonzero">
            <g id="mapas-y-banderas">
                <path d="M5.43243826,0 C2.43697563,0 0,2.43697563 0,5.43240896 C0,9.14983537 4.86150006,14.6072346 5.06848274,14.8377427 C5.26289704,15.0542762 5.60233105,15.0538953 5.79639378,14.8377427 C6.00337646,14.6072346 10.8648765,9.14983537 10.8648765,5.43240896 C10.8648765,2.43697563 8.4278716,0 5.43243826,0 Z M5.43243826,13.7616086 C3.79629369,11.8181101 0.978282442,7.98375973 0.978282442,5.43246756 C0.978282442,2.97639035 2.97639035,0.978282442 5.43243826,0.978282442 C7.88848618,0.978282442 9.88659408,2.97639035 9.88659408,5.43243826 C9.88659408,7.98384762 7.06899299,11.8174949 5.43243826,13.7616086 Z" id="Shape"></path>
                <path d="M5.43243826,2.69924157 C3.92534658,2.69924157 2.69927087,3.92534658 2.69927087,5.43243826 C2.69927087,6.93952994 3.92537588,8.16563495 5.43243826,8.16563495 C6.93950064,8.16563495 8.16557636,6.93952994 8.16557636,5.43243826 C8.16557636,3.92534658 6.93950064,2.69924157 5.43243826,2.69924157 Z M5.43243826,7.18735251 C4.4647613,7.18735251 3.67755331,6.40011522 3.67755331,5.43243826 C3.67755331,4.4647613 4.4647906,3.67752401 5.43243826,3.67752401 C6.40008592,3.67752401 7.18732321,4.4647613 7.18732321,5.43243826 C7.18732321,6.40011522 6.40008592,7.18735251 5.43243826,7.18735251 Z" id="Shape"></path>
            </g>
        </g>
    </g>
</svg>