<svg width="20" height="20" viewBox="0 0 20 20" xmlns="http://www.w3.org/2000/svg">
    <g stroke="#858585" stroke-width=".8" fill="none" fill-rule="evenodd" stroke-linecap="round" stroke-linejoin="round">
        <path d="M19.3 12.4c0-2.43-2.507-4.4-5.6-4.4-3.093 0-5.6 1.97-5.6 4.4 0 2.43 2.507 4.4 5.6 4.4a6.94 6.94 0 0 0 1.88-.26l2.12 1.06-.668-1.67c1.374-.801 2.268-2.082 2.268-3.53h0z"/>
        <path d="m8.1 13.6-1.465-.054a7.49 7.49 0 0 1-1.856-.448L2.5 14.4l.982-1.964C1.914 11.412.9 9.808.9 8c0-3.093 2.955-5.6 6.6-5.6 2.991 0 5.514 1.69 6.325 4.006L14.1 8"/>
    </g>
</svg>
